<svg width="64" height="64" viewBox="0 0 64 64" fill="none" xmlns="http://www.w3.org/2000/svg">
<g filter="url(#filter0_d_3_14)">
<circle cx="32" cy="28" r="28" fill="#4894FF"/>
</g>
<path fill-rule="evenodd" clip-rule="evenodd" d="M25 29C25 28.4477 25.4477 28 26 28H40C40.5523 28 41 28.4477 41 29C41 29.5523 40.5523 30 40 30H26C25.4477 30 25 29.5523 25 29Z" fill="white"/>
<path fill-rule="evenodd" clip-rule="evenodd" d="M33 21C33.5523 21 34 21.4477 34 22V36C34 36.5523 33.5523 37 33 37C32.4477 37 32 36.5523 32 36V22C32 21.4477 32.4477 21 33 21Z" fill="white"/>
<defs>
<filter id="filter0_d_3_14" x="0" y="0" width="64" height="64" filterUnits="userSpaceOnUse" color-interpolation-filters="sRGB">
<feFlood flood-opacity="0" result="BackgroundImageFix"/>
<feColorMatrix in="SourceAlpha" type="matrix" values="0 0 0 0 0 0 0 0 0 0 0 0 0 0 0 0 0 0 127 0" result="hardAlpha"/>
<feOffset dy="4"/>
<feGaussianBlur stdDeviation="2"/>
<feColorMatrix type="matrix" values="0 0 0 0 1 0 0 0 0 0.594833 0 0 0 0 0.220833 0 0 0 0.06 0"/>
<feBlend mode="normal" in2="BackgroundImageFix" result="effect1_dropShadow_3_14"/>
<feBlend mode="normal" in="SourceGraphic" in2="effect1_dropShadow_3_14" result="shape"/>
</filter>
</defs>
</svg>
