<svg width="16" height="18" viewBox="0 0 16 18" fill="none" xmlns="http://www.w3.org/2000/svg">
<path fill-rule="evenodd" clip-rule="evenodd" d="M1 9C1.55228 9 2 9.44772 2 10V16C2 16.5523 1.55228 17 1 17C0.447715 17 0 16.5523 0 16V10C0 9.44772 0.447715 9 1 9Z" fill="#464646"/>
<path fill-rule="evenodd" clip-rule="evenodd" d="M8 0C8.55228 0 9 0.447715 9 1V17C9 17.5523 8.55228 18 8 18C7.44772 18 7 17.5523 7 17V1C7 0.447715 7.44772 0 8 0Z" fill="#464646"/>
<path fill-rule="evenodd" clip-rule="evenodd" d="M15 6C15.5523 6 16 6.44772 16 7V17C16 17.5523 15.5523 18 15 18C14.4477 18 14 17.5523 14 17V7C14 6.44772 14.4477 6 15 6Z" fill="#464646"/>
</svg>
